<mxfile host="app.diagrams.net" agent="Mozilla/5.0 (X11; Linux x86_64) AppleWebKit/537.36 (KHTML, like Gecko) Chrome/131.0.0.0 Safari/537.36" version="24.8.9">
  <diagram id="WI9T0HZ2pTsCkuznbFz-" name="Page-1">
    <mxGraphModel dx="1120" dy="476" grid="1" gridSize="10" guides="1" tooltips="1" connect="1" arrows="1" fold="1" page="1" pageScale="1" pageWidth="1169" pageHeight="827" math="0" shadow="0">
      <root>
        <mxCell id="0" />
        <mxCell id="1" parent="0" />
        <mxCell id="koMXSCEaMbT42UIQHmm_-14" value="" style="rounded=1;whiteSpace=wrap;html=1;dashed=1;dashPattern=8 8;" vertex="1" parent="1">
          <mxGeometry x="140" y="130" width="230" height="270" as="geometry" />
        </mxCell>
        <mxCell id="koMXSCEaMbT42UIQHmm_-12" value="" style="rounded=1;whiteSpace=wrap;html=1;dashed=1;dashPattern=8 8;" vertex="1" parent="1">
          <mxGeometry x="400" y="132" width="530" height="268" as="geometry" />
        </mxCell>
        <mxCell id="koMXSCEaMbT42UIQHmm_-2" value="" style="shape=image;editableCssRules=.*;verticalLabelPosition=bottom;labelBackgroundColor=default;verticalAlign=top;aspect=fixed;imageAspect=0;image=data:image/svg+xml,PHN2ZyB4bWxucz0iaHR0cDovL3d3dy53My5vcmcvMjAwMC9zdmciIHZpZXdCb3g9Ii0wLjUgLTAuNSAyNi4wODQgMjgiIGhlaWdodD0iMjgiIHdpZHRoPSIyNi4wODQiPiYjeGE7CSAgPHN0eWxlIHR5cGU9InRleHQvY3NzIj4mI3hhOwkJLnN0MHtzdG9wLWNvbG9yOiMwMGNlYWM7fSYjeGE7CQkuc3Qxe3N0b3AtY29sb3I6IzA3ODM4Zjt9JiN4YTsJICA8L3N0eWxlPiYjeGE7CTxkZWZzPiYjeGE7CQk8bGluZWFyR3JhZGllbnQgZ3JhZGllbnRVbml0cz0idXNlclNwYWNlT25Vc2UiIHkyPSIyMy43OTIiIHgyPSIyMy4yNTYiIHkxPSIzLjQ3NCIgeDE9IjEuODY1IiBpZD0iQSI+JiN4YTsJCQk8c3RvcCBjbGFzcz0ic3QwIi8+JiN4YTsJCQk8c3RvcCBjbGFzcz0ic3QxIiBvZmZzZXQ9IjEiLz4mI3hhOwkJPC9saW5lYXJHcmFkaWVudD4mI3hhOwk8L2RlZnM+JiN4YTsJPHBhdGggZmlsbD0idXJsKCNBKSIgZD0iTTI0LjEwNCA4LjEwMmE0Ljk3IDQuOTcgMCAwIDEgMS4wNDIgMS41MzRjLjI5MS41NDkuNDM4IDEuMTUyLjQzOCAxLjgxdjExLjcyNWMwIDEuMjQxLS40MjEgMi4yNjUtMS4yNjIgMy4wNjgtLjgzOC44NDItMS44OCAxLjI2MS0zLjEyMSAxLjI2MUgzLjgyN2E0LjE4IDQuMTggMCAwIDEtMy4wNjgtMS4yNjFDLS4wODEgMjUuNDM2LS41IDI0LjQxMi0uNSAyMy4xNzFWMTEuNDQ0YzAtMS4zODcuNDkxLTIuNTAyIDEuNDc4LTMuMzQyTDkuNjM4LjU5NkE0LjUgNC41IDAgMCAxIDEyLjU5NC0uNSA0LjA5IDQuMDkgMCAwIDEgMTUuNDQ0LjU5NnptLTkuMzcgNy44MzZIMTAuMzV2OC43MTNoNC4zODR6bTcuNzgyLTQuNDk0YzAtLjQ3My0uMTQ3LS44NTktLjQzOC0xLjE1bC04LjY1OC03LjUwNmMtLjYyMS0uNDczLTEuMjYxLS40NzMtMS45MTggMGwtOC42NTUgNy41MDZjLS4yOTMuMjkzLS40MzguNjc3LS40MzggMS4xNTJ2MTEuNzI1YzAgLjQzOC4xMjguODAzLjM4NCAxLjA5NmExLjUzIDEuNTMgMCAwIDAgMS4wNC4zODRoMy42MTd2LTguNzEzYzAtLjgwMy4yNzQtMS40OC44MjEtMi4wMjcuNTg2LS41ODYgMS4yOC0uODc3IDIuMDgzLS44NzdoNC4zODRhMi42NiAyLjY2IDAgMCAxIDIuMDI3Ljg3N2MuNTQ5LjU0Ny44MjIgMS4yMjQuODIyIDIuMDI3djguNzEzaDMuNjE3Yy40MzggMCAuNzg0LS4xMjggMS4wNC0uMzg0LjE0NC0uMTQzLjI1Ny0uMzE0LjMzMy0uNTAzcy4xMTEtLjM5LjEwNi0uNTkzeiIvPiYjeGE7PC9zdmc+;" vertex="1" parent="1">
          <mxGeometry x="180" y="243.5" width="48.29" height="52" as="geometry" />
        </mxCell>
        <mxCell id="koMXSCEaMbT42UIQHmm_-3" value="" style="shape=image;verticalLabelPosition=bottom;labelBackgroundColor=#ffffff;verticalAlign=top;aspect=fixed;imageAspect=0;image=data:image/svg+xml,PHN2ZyB4bWxuczpjYz0iaHR0cDovL2NyZWF0aXZlY29tbW9ucy5vcmcvbnMjIiB4bWxuczpkYz0iaHR0cDovL3B1cmwub3JnL2RjL2VsZW1lbnRzLzEuMS8iIHhtbG5zOmlua3NjYXBlPSJodHRwOi8vd3d3Lmlua3NjYXBlLm9yZy9uYW1lc3BhY2VzL2lua3NjYXBlIiB4bWxuczpyZGY9Imh0dHA6Ly93d3cudzMub3JnLzE5OTkvMDIvMjItcmRmLXN5bnRheC1ucyMiIHhtbG5zOnNvZGlwb2RpPSJodHRwOi8vc29kaXBvZGkuc291cmNlZm9yZ2UubmV0L0RURC9zb2RpcG9kaS0wLmR0ZCIgeG1sbnM6c3ZnPSJodHRwOi8vd3d3LnczLm9yZy8yMDAwL3N2ZyIgeG1sbnM9Imh0dHA6Ly93d3cudzMub3JnLzIwMDAvc3ZnIiB4bWxuczp4bGluaz0iaHR0cDovL3d3dy53My5vcmcvMTk5OS94bGluayIgdmVyc2lvbj0iMS4xIiBpZD0ic3ZnNzY2MjIiIGlua3NjYXBlOnZlcnNpb249IjAuOTIuMyAoMjQwNTU0NiwgMjAxOC0wMy0xMSkiIHNvZGlwb2RpOmRvY25hbWU9ImRhdGFfY29ubmVjdGlvbnMuc3ZnIiB4PSIwcHgiIHk9IjBweCIgdmlld0JveD0iMCAwIDE4LjE2IDI0LjA0IiBzdHlsZT0iZW5hYmxlLWJhY2tncm91bmQ6bmV3IDAgMCAxOC4xNiAyNC4wNDsiIHhtbDpzcGFjZT0icHJlc2VydmUiPiYjeGE7PHNvZGlwb2RpOm5hbWVkdmlldyBib3JkZXJjb2xvcj0iIzY2NjY2NiIgYm9yZGVyb3BhY2l0eT0iMSIgZml0LW1hcmdpbi1ib3R0b209IjAiIGZpdC1tYXJnaW4tbGVmdD0iMCIgZml0LW1hcmdpbi1yaWdodD0iMCIgZml0LW1hcmdpbi10b3A9IjAiIGdyaWR0b2xlcmFuY2U9IjEwIiBndWlkZXRvbGVyYW5jZT0iMTAiIGlkPSJuYW1lZHZpZXc3NjYyNCIgaW5rc2NhcGU6Y3VycmVudC1sYXllcj0ic3ZnNzY2MjIiIGlua3NjYXBlOmN4PSIxMy42MDI3NzEiIGlua3NjYXBlOmN5PSIxMi40OTI5OTMiIGlua3NjYXBlOnBhZ2VvcGFjaXR5PSIwIiBpbmtzY2FwZTpwYWdlc2hhZG93PSIyIiBpbmtzY2FwZTp3aW5kb3ctaGVpZ2h0PSIxMDE3IiBpbmtzY2FwZTp3aW5kb3ctbWF4aW1pemVkPSIxIiBpbmtzY2FwZTp3aW5kb3ctd2lkdGg9IjE5MjAiIGlua3NjYXBlOndpbmRvdy14PSItOCIgaW5rc2NhcGU6d2luZG93LXk9Ii04IiBpbmtzY2FwZTp6b29tPSIxOS4xMjI1MTEiIG9iamVjdHRvbGVyYW5jZT0iMTAiIHBhZ2Vjb2xvcj0iI2ZmZmZmZiIgc2hvd2dyaWQ9ImZhbHNlIj4mI3hhOwk8L3NvZGlwb2RpOm5hbWVkdmlldz4mI3hhOzxnIGlkPSJnNzY2MjAiIHRyYW5zZm9ybT0idHJhbnNsYXRlKDAsLTAuMDAxODYzOCkiPiYjeGE7CTx0aXRsZSBpZD0idGl0bGU3NjU3MCI+UGFnZS0xPC90aXRsZT4mI3hhOwk8ZyBpZD0iZ3JvdXA0NTY5LTEiPiYjeGE7CQk8dGl0bGUgaWQ9InRpdGxlNzY1NzIiPkRhdGEgQ29ubmVjdGlvbnM8L3RpdGxlPiYjeGE7CQk8ZyBpZD0ic2hhcGU0NTcwLTIiPiYjeGE7CQkJPHRpdGxlIGlkPSJ0aXRsZTc2NTc0Ij5TaGVldC40NTcwPC90aXRsZT4mI3hhOwkJCTxwYXRoIGlkPSJwYXRoNzY1NzYiIGlua3NjYXBlOmNvbm5lY3Rvci1jdXJ2YXR1cmU9IjAiIHN0eWxlPSJmaWxsOiMwMEJDRjI7IiBkPSJNMCwzLjMyYzAsMTcuNDUsMCwxNy40NSwwLDE3LjQ1ICAgICBjMCwxLjgsNC4xMywzLjI3LDkuMTgsMy4yN2MwLTIwLjcyLDAtMjAuNzIsMC0yMC43MkwwLDMuMzJ6Ii8+JiN4YTsJCTwvZz4mI3hhOwkJPGcgaWQ9InNoYXBlNDU3MS00IiB0cmFuc2Zvcm09InRyYW5zbGF0ZSg4Ljk4NDU3KSI+JiN4YTsJCQk8dGl0bGUgaWQ9InRpdGxlNzY1NzkiPlNoZWV0LjQ1NzE8L3RpdGxlPiYjeGE7CQkJPHBhdGggaWQ9InBhdGg3NjU4MSIgaW5rc2NhcGU6Y29ubmVjdG9yLWN1cnZhdHVyZT0iMCIgc3R5bGU9ImZpbGw6IzI5QzdGNDsiIGQ9Ik0wLDI0LjA0YzAuMTIsMCwwLjEyLDAsMC4xMiwwICAgICBjNS4wMSwwLDkuMDYtMS40Nyw5LjA2LTMuMjdjMC0xNy40NSwwLTE3LjQ1LDAtMTcuNDVDMCwzLjMyLDAsMy4zMiwwLDMuMzJWMjQuMDR6Ii8+JiN4YTsJCTwvZz4mI3hhOwkJPGcgaWQ9InNoYXBlNDU3Mi02IiB0cmFuc2Zvcm09InRyYW5zbGF0ZSgwLC0xNy4zOTgyKSI+JiN4YTsJCQk8dGl0bGUgaWQ9InRpdGxlNzY1ODQiPlNoZWV0LjQ1NzI8L3RpdGxlPiYjeGE7CQkJPHBhdGggaWQ9InBhdGg3NjU4NiIgaW5rc2NhcGU6Y29ubmVjdG9yLWN1cnZhdHVyZT0iMCIgc3R5bGU9ImZpbGw6I0ZGRkZGRjsiIGQ9Ik0wLDIwLjcyYzAtMS44Myw0LjA4LTMuMzIsOS4wOC0zLjMyICAgICBjNS4wMiwwLDkuMDgsMS40OSw5LjA4LDMuMzJjMCwxLjg1LTQuMDYsMy4zMi05LjA4LDMuMzJDNC4wOCwyNC4wNCwwLDIyLjU3LDAsMjAuNzJ6Ii8+JiN4YTsJCTwvZz4mI3hhOwkJPGcgaWQ9InNoYXBlNDU3My04IiB0cmFuc2Zvcm09InRyYW5zbGF0ZSgxLjk1MzE3LC0xOC43NjY2KSI+JiN4YTsJCQk8dGl0bGUgaWQ9InRpdGxlNzY1ODkiPlNoZWV0LjQ1NzM8L3RpdGxlPiYjeGE7CQkJPHBhdGggaWQ9InBhdGg3NjU5MSIgaW5rc2NhcGU6Y29ubmVjdG9yLWN1cnZhdHVyZT0iMCIgc3R5bGU9ImZpbGw6Izg1QjM1MTsiIGQ9Ik0wLDIxLjg5YzAtMS4xOCwzLjItMi4xNSw3LjEzLTIuMTUgICAgIGMzLjk0LDAsNy4xMywwLjk3LDcuMTMsMi4xNWMwLDEuMi0zLjE5LDIuMTUtNy4xMywyLjE1QzMuMiwyNC4wNCwwLDIzLjA5LDAsMjEuODl6Ii8+JiN4YTsJCTwvZz4mI3hhOwkJPGcgaWQ9InNoYXBlNDU3NC0xMCIgdHJhbnNmb3JtPSJ0cmFuc2xhdGUoMS45NTMxNywtMTkuNTQ4NikiPiYjeGE7CQkJPHRpdGxlIGlkPSJ0aXRsZTc2NTk0Ij5TaGVldC40NTc0PC90aXRsZT4mI3hhOwkJCTxwYXRoIGlkPSJwYXRoNzY1OTYiIGlua3NjYXBlOmNvbm5lY3Rvci1jdXJ2YXR1cmU9IjAiIHN0eWxlPSJmaWxsOiNCQUM4NEE7IiBkPSJNMTIuNzYsMjQuMDRjMC45Mi0wLjM5LDEuNS0wLjgxLDEuNS0xLjMxICAgICBjMC0xLjIzLTMuMi0yLjItNy4xMy0yLjJTMCwyMS41LDAsMjIuNzNjMCwwLjUsMC41OSwwLjkyLDEuNTEsMS4zMWMxLjMxLTAuNSwzLjMxLTAuODUsNS42Mi0wLjg1ICAgICBDOS40MSwyMy4xOSwxMS40NSwyMy41NCwxMi43NiwyNC4wNHoiLz4mI3hhOwkJPC9nPiYjeGE7CQk8ZyBpZD0ic2hhcGU0NTc1LTEyIiB0cmFuc2Zvcm09InRyYW5zbGF0ZSgyLjUzOTEyLC02LjA2MDA2KSI+JiN4YTsJCQk8dGl0bGUgaWQ9InRpdGxlNzY1OTkiPlNoZWV0LjQ1NzU8L3RpdGxlPiYjeGE7CQkJPHBhdGggaWQ9InBhdGg3NjYwMSIgaW5rc2NhcGU6Y29ubmVjdG9yLWN1cnZhdHVyZT0iMCIgc3R5bGU9ImZpbGw6I0ZGRkZGRjsiIGQ9Ik0xMi4zNSwyMy40MmMtMC41LDAuNDMtMS4xMiwwLjYyLTEuOTcsMC42MiAgICAgYy0yLjgyLDAtMi44MiwwLTIuODIsMGMwLTcuNDIsMC03LjQyLDAtNy40MmMyLjY3LDAsMi42NywwLDIuNjcsMGMwLjg1LDAsMS40NiwwLjEyLDEuOTMsMC40N2MwLjQzLDAuMjcsMC42MiwwLjcsMC42MiwxLjI1ICAgICBjMCwwLjQzLTAuMTYsMC43OC0wLjQ2LDEuMTRjLTAuMjcsMC4yMy0wLjU5LDAuNDItMC45NywwLjU1bDAsMGMwLjU0LDAuMDcsMC45NywwLjI2LDEuMjcsMC42MmMwLjMyLDAuMzIsMC40NywwLjcxLDAuNDcsMS4xNyAgICAgQzEzLjA5LDIyLjQ4LDEyLjgyLDIzLjAzLDEyLjM1LDIzLjQyeiBNNS40NywyMi45OWMtMC43LDAuNzEtMS42NywxLjA1LTIuODMsMS4wNWMtMi42NCwwLTIuNjQsMC0yLjY0LDBjMC03LjQyLDAtNy40MiwwLTcuNDIgICAgIGMyLjY0LDAsMi42NCwwLDIuNjQsMGMyLjYsMCwzLjksMS4xNywzLjksMy42QzYuNTQsMjEuMzksNi4yLDIyLjI5LDUuNDcsMjIuOTl6Ii8+JiN4YTsJCTwvZz4mI3hhOwkJPGcgaWQ9InNoYXBlNDU3Ni0xNCIgdHJhbnNmb3JtPSJ0cmFuc2xhdGUoNC4xMDE2NSwtNy40Mjg0NikiPiYjeGE7CQkJPHRpdGxlIGlkPSJ0aXRsZTc2NjA0Ij5TaGVldC40NTc2PC90aXRsZT4mI3hhOwkJCTxwYXRoIGlkPSJwYXRoNzY2MDYiIGlua3NjYXBlOmNvbm5lY3Rvci1jdXJ2YXR1cmU9IjAiIHN0eWxlPSJmaWxsOiMwMEJDRjI7IiBkPSJNMC44NywxOS4zNWMtMC44NywwLTAuODcsMC0wLjg3LDAgICAgIGMwLDQuNjksMCw0LjY5LDAsNC42OWMwLjg3LDAsMC44NywwLDAuODcsMGMwLjc4LDAsMS4zOS0wLjIzLDEuOC0wLjY0YzAuNDYtMC40MywwLjY1LTEuMDIsMC42NS0xLjc1YzAtMC43LTAuMTktMS4yNS0wLjYxLTEuNjcgICAgIEMyLjI2LDE5LjYsMS42NSwxOS4zNSwwLjg3LDE5LjM1eiIvPiYjeGE7CQk8L2c+JiN4YTsJCTxnIGlkPSJzaGFwZTQ1NzctMTYiIHRyYW5zZm9ybT0idHJhbnNsYXRlKDExLjcxOSwtMTAuMzYwNykiPiYjeGE7CQkJPHRpdGxlIGlkPSJ0aXRsZTc2NjA5Ij5TaGVldC40NTc3PC90aXRsZT4mI3hhOwkJCTxwYXRoIGlkPSJwYXRoNzY2MTEiIGlua3NjYXBlOmNvbm5lY3Rvci1jdXJ2YXR1cmU9IjAiIHN0eWxlPSJmaWxsOiMyOUM3RjQ7IiBkPSJNMS42MiwyMy44MWMwLjIxLTAuMTksMC4zMy0wLjQzLDAuMzMtMC42OSAgICAgYzAtMC41NS0wLjQxLTAuODMtMS4yOC0wLjgzYy0wLjY3LDAtMC42NywwLTAuNjcsMGMwLDEuNzUsMCwxLjc1LDAsMS43NWMwLjc5LDAsMC43OSwwLDAuNzksMEMxLjEyLDI0LjA0LDEuNDIsMjMuOTcsMS42MiwyMy44MSAgICAgeiIvPiYjeGE7CQk8L2c+JiN4YTsJCTxnIGlkPSJzaGFwZTQ1NzgtMTgiIHRyYW5zZm9ybT0idHJhbnNsYXRlKDExLjcxOSwtNy4yMzI5NykiPiYjeGE7CQkJPHRpdGxlIGlkPSJ0aXRsZTc2NjE0Ij5TaGVldC40NTc4PC90aXRsZT4mI3hhOwkJCTxwYXRoIGlkPSJwYXRoNzY2MTYiIGlua3NjYXBlOmNvbm5lY3Rvci1jdXJ2YXR1cmU9IjAiIHN0eWxlPSJmaWxsOiMyOUM3RjQ7IiBkPSJNMS44MSwyMi4zM2MtMC4yLTAuMTUtMC41LTAuMjQtMC44OC0wLjI0ICAgICBjLTAuOTMsMC0wLjkzLDAtMC45MywwYzAsMS45NSwwLDEuOTUsMCwxLjk1YzAuOTMsMCwwLjkzLDAsMC45MywwYzAuMzgsMCwwLjY4LTAuMDcsMC44OC0wLjI2YzAuMjMtMC4yLDAuMzQtMC40MywwLjM0LTAuNzUgICAgIEMyLjE1LDIyLjc2LDIuMDQsMjIuNTMsMS44MSwyMi4zM3oiLz4mI3hhOwkJPC9nPiYjeGE7CTwvZz4mI3hhOzwvZz4mI3hhOzwvc3ZnPg==;" vertex="1" parent="1">
          <mxGeometry x="160" y="266.5" width="30.55" height="40" as="geometry" />
        </mxCell>
        <mxCell id="koMXSCEaMbT42UIQHmm_-4" value="" style="rounded=1;whiteSpace=wrap;html=1;dashed=1;dashPattern=8 8;" vertex="1" parent="1">
          <mxGeometry x="430" y="180" width="250" height="190" as="geometry" />
        </mxCell>
        <mxCell id="koMXSCEaMbT42UIQHmm_-1" value="" style="image;sketch=0;aspect=fixed;html=1;points=[];align=center;fontSize=12;image=img/lib/mscae/Virtual_Machine.svg;" vertex="1" parent="1">
          <mxGeometry x="650" y="174" width="50" height="46" as="geometry" />
        </mxCell>
        <mxCell id="koMXSCEaMbT42UIQHmm_-5" value="" style="shape=image;verticalLabelPosition=bottom;labelBackgroundColor=#ffffff;verticalAlign=top;aspect=fixed;imageAspect=0;image=data:image/svg+xml,PHN2ZyB4bWxuczpjYz0iaHR0cDovL2NyZWF0aXZlY29tbW9ucy5vcmcvbnMjIiB4bWxuczpkYz0iaHR0cDovL3B1cmwub3JnL2RjL2VsZW1lbnRzLzEuMS8iIHhtbG5zOmlua3NjYXBlPSJodHRwOi8vd3d3Lmlua3NjYXBlLm9yZy9uYW1lc3BhY2VzL2lua3NjYXBlIiB4bWxuczpyZGY9Imh0dHA6Ly93d3cudzMub3JnLzE5OTkvMDIvMjItcmRmLXN5bnRheC1ucyMiIHhtbG5zOnNvZGlwb2RpPSJodHRwOi8vc29kaXBvZGkuc291cmNlZm9yZ2UubmV0L0RURC9zb2RpcG9kaS0wLmR0ZCIgeG1sbnM6c3ZnPSJodHRwOi8vd3d3LnczLm9yZy8yMDAwL3N2ZyIgeG1sbnM9Imh0dHA6Ly93d3cudzMub3JnLzIwMDAvc3ZnIiB4bWxuczp4bGluaz0iaHR0cDovL3d3dy53My5vcmcvMTk5OS94bGluayIgdmVyc2lvbj0iMS4xIiBpZD0ic3ZnMTk2OTUxIiBpbmtzY2FwZTp2ZXJzaW9uPSIwLjkyLjMgKDI0MDU1NDYsIDIwMTgtMDMtMTEpIiBzb2RpcG9kaTpkb2NuYW1lPSJweXRob25fdG9vbHNfYW5kX3Nkay5zdmciIHg9IjBweCIgeT0iMHB4IiB2aWV3Qm94PSIwIDAgNDggNDgiIHN0eWxlPSJlbmFibGUtYmFja2dyb3VuZDpuZXcgMCAwIDQ4IDQ4OyIgeG1sOnNwYWNlPSJwcmVzZXJ2ZSI+JiN4YTs8c29kaXBvZGk6bmFtZWR2aWV3IGJvcmRlcmNvbG9yPSIjNjY2NjY2IiBib3JkZXJvcGFjaXR5PSIxIiBmaXQtbWFyZ2luLWJvdHRvbT0iMCIgZml0LW1hcmdpbi1sZWZ0PSIwIiBmaXQtbWFyZ2luLXJpZ2h0PSIwIiBmaXQtbWFyZ2luLXRvcD0iMCIgZ3JpZHRvbGVyYW5jZT0iMTAiIGd1aWRldG9sZXJhbmNlPSIxMCIgaWQ9Im5hbWVkdmlldzE5Njk1MyIgaW5rc2NhcGU6Y3VycmVudC1sYXllcj0ic3ZnMTk2OTUxIiBpbmtzY2FwZTpjeD0iMzIuMDAwMDE1IiBpbmtzY2FwZTpjeT0iMzIuMDAwNTg2IiBpbmtzY2FwZTpwYWdlb3BhY2l0eT0iMCIgaW5rc2NhcGU6cGFnZXNoYWRvdz0iMiIgaW5rc2NhcGU6d2luZG93LWhlaWdodD0iMTAxNyIgaW5rc2NhcGU6d2luZG93LW1heGltaXplZD0iMSIgaW5rc2NhcGU6d2luZG93LXdpZHRoPSIxOTIwIiBpbmtzY2FwZTp3aW5kb3cteD0iLTgiIGlua3NjYXBlOndpbmRvdy15PSItOCIgaW5rc2NhcGU6em9vbT0iMTAuMjcyOTE3IiBvYmplY3R0b2xlcmFuY2U9IjEwIiBwYWdlY29sb3I9IiNmZmZmZmYiIHNob3dncmlkPSJmYWxzZSI+JiN4YTsJPC9zb2RpcG9kaTpuYW1lZHZpZXc+JiN4YTs8ZyBpZD0iZzE5Njk0OSIgdHJhbnNmb3JtPSJ0cmFuc2xhdGUoLTcuNjUsLTcuNjQ5MjgwNikiPiYjeGE7CTx0aXRsZSBpZD0idGl0bGUxOTY5MDUiPlBhZ2UtMTwvdGl0bGU+JiN4YTsJPGcgaWQ9Imdyb3VwMTE3Ny0xIiB0cmFuc2Zvcm09InRyYW5zbGF0ZSg3LjY1LC03LjYxMzQyKSI+JiN4YTsJCTx0aXRsZSBpZD0idGl0bGUxOTY5MDciPlB5dGhvbiBUb29scyBhbmQgU0RLPC90aXRsZT4mI3hhOwkJPGcgaWQ9Imdyb3VwMTE3OC0yIj4mI3hhOwkJCTx0aXRsZSBpZD0idGl0bGUxOTY5MDkiPlNoZWV0LjExNzg8L3RpdGxlPiYjeGE7CQkJPGcgaWQ9Imdyb3VwMTE3OS0zIiB0cmFuc2Zvcm09InRyYW5zbGF0ZSgwLC0xMi4zMTQ3KSI+JiN4YTsJCQkJPHRpdGxlIGlkPSJ0aXRsZTE5NjkxMSI+U2hlZXQuMTE3OTwvdGl0bGU+JiN4YTsJCQkJPGcgaWQ9InNoYXBlMTE4MC00Ij4mI3hhOwkJCQkJPHRpdGxlIGlkPSJ0aXRsZTE5NjkxMyI+U2hlZXQuMTE4MDwvdGl0bGU+JiN4YTsJCQkJCTxwYXRoIGlkPSJwYXRoMTk2OTE1IiBpbmtzY2FwZTpjb25uZWN0b3ItY3VydmF0dXJlPSIwIiBzdHlsZT0iZmlsbDojMzc3MkE0OyIgZD0iTTAsNTEuMTdjMC4wMi0wLjA2LDAuMDQtMC4xMywwLjA1LTAuMiAgICAgICBjMC4wNC0wLjcsMC4wNC0xLjQsMC4xMS0yLjFjMC4yNC0yLjI2LDAuNzYtNC40NCwyLjE4LTYuMjhjMS4xLTEuNDQsMi41NC0yLjMsNC4zMy0yLjU0YzAuMjUtMC4wMywwLjUxLTAuMDQsMC43Ni0wLjA0ICAgICAgIGM1LjM5LDAsMTAuNzksMCwxNi4xOCwwYzAuMzEsMCwwLjMxLDAsMC4zMi0wLjMyYzAtMC4zNy0wLjAyLTAuNzUsMC0xLjEyYzAuMDEtMC4yMy0wLjA3LTAuMjktMC4yOS0wLjI5ICAgICAgIGMtMi45OCwwLjAxLTUuOTUsMC4wMS04LjkzLDAuMDFjLTAuNywwLTEuMzktMC4wMS0yLjA5LDBjLTAuMTksMC0wLjI2LTAuMDUtMC4yNS0wLjI1YzAtMS44My0wLjAxLTMuNjcsMC01LjUgICAgICAgYzAuMDEtMC44MiwwLjQtMS41MSwwLjkzLTIuMTFjMC43NC0wLjg0LDEuNjktMS4zNiwyLjcxLTEuNzVjMS4yNi0wLjQ4LDIuNTctMC43MywzLjg5LTAuODljMS44My0wLjIzLDMuNjYtMC4yNSw1LjQ5LTAuMTcgICAgICAgYzEuOTcsMC4wOCwzLjkyLDAuMzUsNS43OCwxLjA3YzEuMjYsMC40OSwyLjQsMS4xNiwzLjIzLDIuMjZjMC42OSwwLjkxLDEuMDEsMS45MiwwLjk1LDMuMDhjLTAuMDUsMC45My0wLjAyLDEuODctMC4wMSwyLjgxICAgICAgIGMwLDEuNzMsMC4wMSwzLjQ2LDAuMDEsNS4xOWMwLDEuMDIsMC4wMiwyLjA0LTAuMDUsMy4wNmMtMC4xNCwyLjQtMS4yOSw0LjExLTMuNTEsNS4wNGMtMS4wMSwwLjQyLTIuMDYsMC42MS0zLjE0LDAuNjEgICAgICAgYy0zLjgyLDAtNy42NS0wLjAxLTExLjQ3LDBjLTEuMjIsMC0yLjM5LDAuMjctMy40NSwwLjkxYy0xLjQsMC44NS0yLjIsMi4xNS0yLjY1LDMuN2MtMC4yMiwwLjc3LTAuMzEsMS41Ny0wLjMyLDIuMzcgICAgICAgYzAsMS43MywwLDMuNDYsMCw1LjE5YzAsMC4zNSwwLDAuMzUtMC4zNCwwLjM1Yy0xLjI1LDAtMi40OSwwLjA0LTMuNzQsMC4wMWMtMS4yNy0wLjA0LTIuMzctMC41NC0zLjMyLTEuMzcgICAgICAgYy0xLjEyLTAuOTYtMS44Mi0yLjE5LTIuMzEtMy41NmMtMC40Ni0xLjI1LTAuNzMtMi41NC0wLjg0LTMuODZjLTAuMDgtMC44NC0wLjExLTEuNjgtMC4xNi0yLjUyICAgICAgIEMwLjA0LDUxLjg3LDAuMDIsNTEuNzgsMCw1MS42OUMwLDUxLjUyLDAsNTEuMzUsMCw1MS4xN3oiLz4mI3hhOwkJCQk8L2c+JiN4YTsJCQkJPGcgaWQ9InNoYXBlMTE4MS02IiB0cmFuc2Zvcm09InRyYW5zbGF0ZSgxNS4yMDMzLC0yNy44MzIpIj4mI3hhOwkJCQkJPHRpdGxlIGlkPSJ0aXRsZTE5NjkxOCI+U2hlZXQuMTE4MTwvdGl0bGU+JiN4YTsJCQkJCTxwYXRoIGlkPSJwYXRoMTk2OTIwIiBpbmtzY2FwZTpjb25uZWN0b3ItY3VydmF0dXJlPSIwIiBkPSJNMCw2MS4xNWMwLDEuMTksMC45NCwyLjE1LDIuMTEsMi4xNWMxLjE1LDAsMi4xMS0wLjk3LDIuMTEtMi4xMyAgICAgICBjMC0xLjE5LTAuOTUtMi4xNi0yLjExLTIuMTVDMC45Myw1OS4wMywwLDU5Ljk3LDAsNjEuMTV6Ii8+JiN4YTsJCQkJPC9nPiYjeGE7CQkJCTxnIGlkPSJzaGFwZTExODItOCIgdHJhbnNmb3JtPSJ0cmFuc2xhdGUoMTUuMjAzMywtMjcuODMyKSI+JiN4YTsJCQkJCTx0aXRsZSBpZD0idGl0bGUxOTY5MjMiPlNoZWV0LjExODI8L3RpdGxlPiYjeGE7CQkJCQk8cGF0aCBpZD0icGF0aDE5NjkyNSIgaW5rc2NhcGU6Y29ubmVjdG9yLWN1cnZhdHVyZT0iMCIgc3R5bGU9ImZpbGw6I0ZGRkZGRjsiIGQ9Ik0wLDYxLjE1YzAtMS4xOCwwLjkzLTIuMTIsMi4xMS0yLjEzICAgICAgIGMxLjE2LTAuMDEsMi4xMSwwLjk2LDIuMTEsMi4xNWMwLDEuMTYtMC45NiwyLjEzLTIuMTEsMi4xM0MwLjk0LDYzLjMsMCw2Mi4zNCwwLDYxLjE1eiIvPiYjeGE7CQkJCTwvZz4mI3hhOwkJCTwvZz4mI3hhOwkJCTxnIGlkPSJncm91cDExODMtMTAiIHRyYW5zZm9ybT0idHJhbnNsYXRlKDEyLjU5NCkiPiYjeGE7CQkJCTx0aXRsZSBpZD0idGl0bGUxOTY5MjkiPlNoZWV0LjExODM8L3RpdGxlPiYjeGE7CQkJCTxnIGlkPSJzaGFwZTExODQtMTEiPiYjeGE7CQkJCQk8dGl0bGUgaWQ9InRpdGxlMTk2OTMxIj5TaGVldC4xMTg0PC90aXRsZT4mI3hhOwkJCQkJPHBhdGggaWQ9InBhdGgxOTY5MzMiIGlua3NjYXBlOmNvbm5lY3Rvci1jdXJ2YXR1cmU9IjAiIHN0eWxlPSJmaWxsOiNGRkRBNEI7IiBkPSJNMzUuNDEsMzkuNjZjLTAuMDIsMC4wNy0wLjA1LDAuMTQtMC4wNSwwLjIxICAgICAgIGMtMC4wNCwwLjctMC4wNSwxLjQtMC4xMiwyLjA5Yy0wLjIzLDIuMjctMC43NSw0LjQ1LTIuMTcsNi4yOWMtMS4xLDEuNDQtMi41NCwyLjMtNC4zNCwyLjUzYy0wLjI1LDAuMDQtMC41LDAuMDUtMC43NiwwLjA1ICAgICAgIGMtNS4zOSwwLTEwLjc4LDAtMTYuMTcsMGMtMC4zMiwwLTAuMzIsMC0wLjMyLDAuMzJjMCwwLjM3LDAuMDEsMC43NSwwLDEuMTJjLTAuMDIsMC4yMywwLjA3LDAuMjksMC4yOCwwLjI5ICAgICAgIGMyLjk4LTAuMDEsNS45Ni0wLjAxLDguOTQtMC4wMWMwLjY5LDAsMS4zOSwwLjAxLDIuMDksMGMwLjE5LDAsMC4yNSwwLjA1LDAuMjUsMC4yNWMtMC4wMSwxLjgzLDAuMDEsMy42Ny0wLjAxLDUuNSAgICAgICBjLTAuMDEsMC44Mi0wLjM5LDEuNTEtMC45MywyLjExYy0wLjc0LDAuODMtMS42OCwxLjM2LTIuNywxLjc1Yy0xLjI2LDAuNDgtMi41NywwLjcyLTMuOSwwLjg5Yy0xLjgyLDAuMjMtMy42NSwwLjI1LTUuNDgsMC4xNyAgICAgICBjLTEuOTctMC4wOS0zLjkyLTAuMzUtNS43OC0xLjA3Yy0xLjI2LTAuNDktMi40LTEuMTYtMy4yNC0yLjI3Yy0wLjY4LTAuOS0xLTEuOTItMC45NC0zLjA3YzAuMDUtMC45MywwLjAxLTEuODcsMC4wMS0yLjgxICAgICAgIGMwLTEuNzMtMC4wMS0zLjQ2LTAuMDEtNS4xOWMwLTEuMDItMC4wMi0yLjA0LDAuMDQtMy4wNmMwLjE0LTIuNCwxLjI5LTQuMTEsMy41Mi01LjA0YzEtMC40MywyLjA2LTAuNjEsMy4xNC0wLjYxICAgICAgIGMzLjgyLDAsNy42NCwwLjAxLDExLjQ2LDBjMS4yMywwLDIuNC0wLjI3LDMuNDYtMC45MWMxLjQtMC44NSwyLjItMi4xNSwyLjY0LTMuN2MwLjIyLTAuNzcsMC4zMi0xLjU3LDAuMzItMi4zNyAgICAgICBjMC4wMS0xLjczLDAtMy40NiwwLTUuMmMwLTAuMzQsMC0wLjM0LDAuMzUtMC4zNGMxLjI0LDAsMi40OS0wLjA0LDMuNzMtMC4wMWMxLjI3LDAuMDQsMi4zNywwLjU0LDMuMzMsMS4zNyAgICAgICBjMS4xMSwwLjk2LDEuODEsMi4xOSwyLjMxLDMuNTZjMC40NSwxLjI1LDAuNzIsMi41NCwwLjg0LDMuODZjMC4wNywwLjg0LDAuMTEsMS42OCwwLjE2LDIuNTFjMCwwLjEsMC4wMywwLjE5LDAuMDUsMC4yOCAgICAgICBDMzUuNDEsMzkuMzIsMzUuNDEsMzkuNDksMzUuNDEsMzkuNjZ6Ii8+JiN4YTsJCQkJPC9nPiYjeGE7CQkJCTxnIGlkPSJzaGFwZTExODUtMTMiIHRyYW5zZm9ybT0idHJhbnNsYXRlKDE1Ljk4MTMsLTMuOTEyKSI+JiN4YTsJCQkJCTx0aXRsZSBpZD0idGl0bGUxOTY5MzYiPlNoZWV0LjExODU8L3RpdGxlPiYjeGE7CQkJCQk8cGF0aCBpZD0icGF0aDE5NjkzOCIgaW5rc2NhcGU6Y29ubmVjdG9yLWN1cnZhdHVyZT0iMCIgZD0iTTQuMjIsNjEuMTZjMC0xLjE5LTAuOTQtMi4xNS0yLjExLTIuMTVDMC45Niw1OS4wMiwwLDU5Ljk4LDAsNjEuMTQgICAgICAgYzAsMS4xOSwwLjk1LDIuMTYsMi4xMiwyLjE1UzQuMjIsNjIuMzQsNC4yMiw2MS4xNnoiLz4mI3hhOwkJCQk8L2c+JiN4YTsJCQkJPGcgaWQ9InNoYXBlMTE4Ni0xNSIgdHJhbnNmb3JtPSJ0cmFuc2xhdGUoMTUuOTgwNywtMy45MTIpIj4mI3hhOwkJCQkJPHRpdGxlIGlkPSJ0aXRsZTE5Njk0MSI+U2hlZXQuMTE4NjwvdGl0bGU+JiN4YTsJCQkJCTxwYXRoIGlkPSJwYXRoMTk2OTQzIiBpbmtzY2FwZTpjb25uZWN0b3ItY3VydmF0dXJlPSIwIiBzdHlsZT0iZmlsbDojRkZGRkZGOyIgZD0iTTQuMjIsNjEuMTZjMCwxLjE4LTAuOTMsMi4xMi0yLjEsMi4xMyAgICAgICBDMC45NSw2My4zLDAsNjIuMzMsMCw2MS4xNGMwLTEuMTYsMC45Ni0yLjEyLDIuMTEtMi4xM0MzLjI4LDU5LjAxLDQuMjIsNTkuOTcsNC4yMiw2MS4xNnoiLz4mI3hhOwkJCQk8L2c+JiN4YTsJCQk8L2c+JiN4YTsJCTwvZz4mI3hhOwk8L2c+JiN4YTs8L2c+JiN4YTs8L3N2Zz4=;" vertex="1" parent="1">
          <mxGeometry x="609" y="254.5" width="41" height="41" as="geometry" />
        </mxCell>
        <mxCell id="koMXSCEaMbT42UIQHmm_-6" value="" style="sketch=0;outlineConnect=0;fontColor=#232F3E;gradientColor=none;fillColor=#01A88D;strokeColor=none;dashed=0;verticalLabelPosition=bottom;verticalAlign=top;align=center;html=1;fontSize=12;fontStyle=0;aspect=fixed;shape=mxgraph.aws4.transfer_for_sftp_resource;" vertex="1" parent="1">
          <mxGeometry x="460" y="252.5" width="44.82" height="46" as="geometry" />
        </mxCell>
        <mxCell id="koMXSCEaMbT42UIQHmm_-7" value="" style="shape=image;verticalLabelPosition=bottom;labelBackgroundColor=#ffffff;verticalAlign=top;aspect=fixed;imageAspect=0;image=data:image/svg+xml,PHN2ZyB4bWxuczpjYz0iaHR0cDovL2NyZWF0aXZlY29tbW9ucy5vcmcvbnMjIiB4bWxuczpkYz0iaHR0cDovL3B1cmwub3JnL2RjL2VsZW1lbnRzLzEuMS8iIHhtbG5zOmlua3NjYXBlPSJodHRwOi8vd3d3Lmlua3NjYXBlLm9yZy9uYW1lc3BhY2VzL2lua3NjYXBlIiB4bWxuczpyZGY9Imh0dHA6Ly93d3cudzMub3JnLzE5OTkvMDIvMjItcmRmLXN5bnRheC1ucyMiIHhtbG5zOnNvZGlwb2RpPSJodHRwOi8vc29kaXBvZGkuc291cmNlZm9yZ2UubmV0L0RURC9zb2RpcG9kaS0wLmR0ZCIgeG1sbnM6c3ZnPSJodHRwOi8vd3d3LnczLm9yZy8yMDAwL3N2ZyIgeG1sbnM9Imh0dHA6Ly93d3cudzMub3JnLzIwMDAvc3ZnIiB4bWxuczp4bGluaz0iaHR0cDovL3d3dy53My5vcmcvMTk5OS94bGluayIgdmVyc2lvbj0iMS4xIiBpZD0ic3ZnNzY2MjIiIGlua3NjYXBlOnZlcnNpb249IjAuOTIuMyAoMjQwNTU0NiwgMjAxOC0wMy0xMSkiIHNvZGlwb2RpOmRvY25hbWU9ImRhdGFfY29ubmVjdGlvbnMuc3ZnIiB4PSIwcHgiIHk9IjBweCIgdmlld0JveD0iMCAwIDE4LjE2IDI0LjA0IiBzdHlsZT0iZW5hYmxlLWJhY2tncm91bmQ6bmV3IDAgMCAxOC4xNiAyNC4wNDsiIHhtbDpzcGFjZT0icHJlc2VydmUiPiYjeGE7PHNvZGlwb2RpOm5hbWVkdmlldyBib3JkZXJjb2xvcj0iIzY2NjY2NiIgYm9yZGVyb3BhY2l0eT0iMSIgZml0LW1hcmdpbi1ib3R0b209IjAiIGZpdC1tYXJnaW4tbGVmdD0iMCIgZml0LW1hcmdpbi1yaWdodD0iMCIgZml0LW1hcmdpbi10b3A9IjAiIGdyaWR0b2xlcmFuY2U9IjEwIiBndWlkZXRvbGVyYW5jZT0iMTAiIGlkPSJuYW1lZHZpZXc3NjYyNCIgaW5rc2NhcGU6Y3VycmVudC1sYXllcj0ic3ZnNzY2MjIiIGlua3NjYXBlOmN4PSIxMy42MDI3NzEiIGlua3NjYXBlOmN5PSIxMi40OTI5OTMiIGlua3NjYXBlOnBhZ2VvcGFjaXR5PSIwIiBpbmtzY2FwZTpwYWdlc2hhZG93PSIyIiBpbmtzY2FwZTp3aW5kb3ctaGVpZ2h0PSIxMDE3IiBpbmtzY2FwZTp3aW5kb3ctbWF4aW1pemVkPSIxIiBpbmtzY2FwZTp3aW5kb3ctd2lkdGg9IjE5MjAiIGlua3NjYXBlOndpbmRvdy14PSItOCIgaW5rc2NhcGU6d2luZG93LXk9Ii04IiBpbmtzY2FwZTp6b29tPSIxOS4xMjI1MTEiIG9iamVjdHRvbGVyYW5jZT0iMTAiIHBhZ2Vjb2xvcj0iI2ZmZmZmZiIgc2hvd2dyaWQ9ImZhbHNlIj4mI3hhOwk8L3NvZGlwb2RpOm5hbWVkdmlldz4mI3hhOzxnIGlkPSJnNzY2MjAiIHRyYW5zZm9ybT0idHJhbnNsYXRlKDAsLTAuMDAxODYzOCkiPiYjeGE7CTx0aXRsZSBpZD0idGl0bGU3NjU3MCI+UGFnZS0xPC90aXRsZT4mI3hhOwk8ZyBpZD0iZ3JvdXA0NTY5LTEiPiYjeGE7CQk8dGl0bGUgaWQ9InRpdGxlNzY1NzIiPkRhdGEgQ29ubmVjdGlvbnM8L3RpdGxlPiYjeGE7CQk8ZyBpZD0ic2hhcGU0NTcwLTIiPiYjeGE7CQkJPHRpdGxlIGlkPSJ0aXRsZTc2NTc0Ij5TaGVldC40NTcwPC90aXRsZT4mI3hhOwkJCTxwYXRoIGlkPSJwYXRoNzY1NzYiIGlua3NjYXBlOmNvbm5lY3Rvci1jdXJ2YXR1cmU9IjAiIHN0eWxlPSJmaWxsOiMwMEJDRjI7IiBkPSJNMCwzLjMyYzAsMTcuNDUsMCwxNy40NSwwLDE3LjQ1ICAgICBjMCwxLjgsNC4xMywzLjI3LDkuMTgsMy4yN2MwLTIwLjcyLDAtMjAuNzIsMC0yMC43MkwwLDMuMzJ6Ii8+JiN4YTsJCTwvZz4mI3hhOwkJPGcgaWQ9InNoYXBlNDU3MS00IiB0cmFuc2Zvcm09InRyYW5zbGF0ZSg4Ljk4NDU3KSI+JiN4YTsJCQk8dGl0bGUgaWQ9InRpdGxlNzY1NzkiPlNoZWV0LjQ1NzE8L3RpdGxlPiYjeGE7CQkJPHBhdGggaWQ9InBhdGg3NjU4MSIgaW5rc2NhcGU6Y29ubmVjdG9yLWN1cnZhdHVyZT0iMCIgc3R5bGU9ImZpbGw6IzI5QzdGNDsiIGQ9Ik0wLDI0LjA0YzAuMTIsMCwwLjEyLDAsMC4xMiwwICAgICBjNS4wMSwwLDkuMDYtMS40Nyw5LjA2LTMuMjdjMC0xNy40NSwwLTE3LjQ1LDAtMTcuNDVDMCwzLjMyLDAsMy4zMiwwLDMuMzJWMjQuMDR6Ii8+JiN4YTsJCTwvZz4mI3hhOwkJPGcgaWQ9InNoYXBlNDU3Mi02IiB0cmFuc2Zvcm09InRyYW5zbGF0ZSgwLC0xNy4zOTgyKSI+JiN4YTsJCQk8dGl0bGUgaWQ9InRpdGxlNzY1ODQiPlNoZWV0LjQ1NzI8L3RpdGxlPiYjeGE7CQkJPHBhdGggaWQ9InBhdGg3NjU4NiIgaW5rc2NhcGU6Y29ubmVjdG9yLWN1cnZhdHVyZT0iMCIgc3R5bGU9ImZpbGw6I0ZGRkZGRjsiIGQ9Ik0wLDIwLjcyYzAtMS44Myw0LjA4LTMuMzIsOS4wOC0zLjMyICAgICBjNS4wMiwwLDkuMDgsMS40OSw5LjA4LDMuMzJjMCwxLjg1LTQuMDYsMy4zMi05LjA4LDMuMzJDNC4wOCwyNC4wNCwwLDIyLjU3LDAsMjAuNzJ6Ii8+JiN4YTsJCTwvZz4mI3hhOwkJPGcgaWQ9InNoYXBlNDU3My04IiB0cmFuc2Zvcm09InRyYW5zbGF0ZSgxLjk1MzE3LC0xOC43NjY2KSI+JiN4YTsJCQk8dGl0bGUgaWQ9InRpdGxlNzY1ODkiPlNoZWV0LjQ1NzM8L3RpdGxlPiYjeGE7CQkJPHBhdGggaWQ9InBhdGg3NjU5MSIgaW5rc2NhcGU6Y29ubmVjdG9yLWN1cnZhdHVyZT0iMCIgc3R5bGU9ImZpbGw6Izg1QjM1MTsiIGQ9Ik0wLDIxLjg5YzAtMS4xOCwzLjItMi4xNSw3LjEzLTIuMTUgICAgIGMzLjk0LDAsNy4xMywwLjk3LDcuMTMsMi4xNWMwLDEuMi0zLjE5LDIuMTUtNy4xMywyLjE1QzMuMiwyNC4wNCwwLDIzLjA5LDAsMjEuODl6Ii8+JiN4YTsJCTwvZz4mI3hhOwkJPGcgaWQ9InNoYXBlNDU3NC0xMCIgdHJhbnNmb3JtPSJ0cmFuc2xhdGUoMS45NTMxNywtMTkuNTQ4NikiPiYjeGE7CQkJPHRpdGxlIGlkPSJ0aXRsZTc2NTk0Ij5TaGVldC40NTc0PC90aXRsZT4mI3hhOwkJCTxwYXRoIGlkPSJwYXRoNzY1OTYiIGlua3NjYXBlOmNvbm5lY3Rvci1jdXJ2YXR1cmU9IjAiIHN0eWxlPSJmaWxsOiNCQUM4NEE7IiBkPSJNMTIuNzYsMjQuMDRjMC45Mi0wLjM5LDEuNS0wLjgxLDEuNS0xLjMxICAgICBjMC0xLjIzLTMuMi0yLjItNy4xMy0yLjJTMCwyMS41LDAsMjIuNzNjMCwwLjUsMC41OSwwLjkyLDEuNTEsMS4zMWMxLjMxLTAuNSwzLjMxLTAuODUsNS42Mi0wLjg1ICAgICBDOS40MSwyMy4xOSwxMS40NSwyMy41NCwxMi43NiwyNC4wNHoiLz4mI3hhOwkJPC9nPiYjeGE7CQk8ZyBpZD0ic2hhcGU0NTc1LTEyIiB0cmFuc2Zvcm09InRyYW5zbGF0ZSgyLjUzOTEyLC02LjA2MDA2KSI+JiN4YTsJCQk8dGl0bGUgaWQ9InRpdGxlNzY1OTkiPlNoZWV0LjQ1NzU8L3RpdGxlPiYjeGE7CQkJPHBhdGggaWQ9InBhdGg3NjYwMSIgaW5rc2NhcGU6Y29ubmVjdG9yLWN1cnZhdHVyZT0iMCIgc3R5bGU9ImZpbGw6I0ZGRkZGRjsiIGQ9Ik0xMi4zNSwyMy40MmMtMC41LDAuNDMtMS4xMiwwLjYyLTEuOTcsMC42MiAgICAgYy0yLjgyLDAtMi44MiwwLTIuODIsMGMwLTcuNDIsMC03LjQyLDAtNy40MmMyLjY3LDAsMi42NywwLDIuNjcsMGMwLjg1LDAsMS40NiwwLjEyLDEuOTMsMC40N2MwLjQzLDAuMjcsMC42MiwwLjcsMC42MiwxLjI1ICAgICBjMCwwLjQzLTAuMTYsMC43OC0wLjQ2LDEuMTRjLTAuMjcsMC4yMy0wLjU5LDAuNDItMC45NywwLjU1bDAsMGMwLjU0LDAuMDcsMC45NywwLjI2LDEuMjcsMC42MmMwLjMyLDAuMzIsMC40NywwLjcxLDAuNDcsMS4xNyAgICAgQzEzLjA5LDIyLjQ4LDEyLjgyLDIzLjAzLDEyLjM1LDIzLjQyeiBNNS40NywyMi45OWMtMC43LDAuNzEtMS42NywxLjA1LTIuODMsMS4wNWMtMi42NCwwLTIuNjQsMC0yLjY0LDBjMC03LjQyLDAtNy40MiwwLTcuNDIgICAgIGMyLjY0LDAsMi42NCwwLDIuNjQsMGMyLjYsMCwzLjksMS4xNywzLjksMy42QzYuNTQsMjEuMzksNi4yLDIyLjI5LDUuNDcsMjIuOTl6Ii8+JiN4YTsJCTwvZz4mI3hhOwkJPGcgaWQ9InNoYXBlNDU3Ni0xNCIgdHJhbnNmb3JtPSJ0cmFuc2xhdGUoNC4xMDE2NSwtNy40Mjg0NikiPiYjeGE7CQkJPHRpdGxlIGlkPSJ0aXRsZTc2NjA0Ij5TaGVldC40NTc2PC90aXRsZT4mI3hhOwkJCTxwYXRoIGlkPSJwYXRoNzY2MDYiIGlua3NjYXBlOmNvbm5lY3Rvci1jdXJ2YXR1cmU9IjAiIHN0eWxlPSJmaWxsOiMwMEJDRjI7IiBkPSJNMC44NywxOS4zNWMtMC44NywwLTAuODcsMC0wLjg3LDAgICAgIGMwLDQuNjksMCw0LjY5LDAsNC42OWMwLjg3LDAsMC44NywwLDAuODcsMGMwLjc4LDAsMS4zOS0wLjIzLDEuOC0wLjY0YzAuNDYtMC40MywwLjY1LTEuMDIsMC42NS0xLjc1YzAtMC43LTAuMTktMS4yNS0wLjYxLTEuNjcgICAgIEMyLjI2LDE5LjYsMS42NSwxOS4zNSwwLjg3LDE5LjM1eiIvPiYjeGE7CQk8L2c+JiN4YTsJCTxnIGlkPSJzaGFwZTQ1NzctMTYiIHRyYW5zZm9ybT0idHJhbnNsYXRlKDExLjcxOSwtMTAuMzYwNykiPiYjeGE7CQkJPHRpdGxlIGlkPSJ0aXRsZTc2NjA5Ij5TaGVldC40NTc3PC90aXRsZT4mI3hhOwkJCTxwYXRoIGlkPSJwYXRoNzY2MTEiIGlua3NjYXBlOmNvbm5lY3Rvci1jdXJ2YXR1cmU9IjAiIHN0eWxlPSJmaWxsOiMyOUM3RjQ7IiBkPSJNMS42MiwyMy44MWMwLjIxLTAuMTksMC4zMy0wLjQzLDAuMzMtMC42OSAgICAgYzAtMC41NS0wLjQxLTAuODMtMS4yOC0wLjgzYy0wLjY3LDAtMC42NywwLTAuNjcsMGMwLDEuNzUsMCwxLjc1LDAsMS43NWMwLjc5LDAsMC43OSwwLDAuNzksMEMxLjEyLDI0LjA0LDEuNDIsMjMuOTcsMS42MiwyMy44MSAgICAgeiIvPiYjeGE7CQk8L2c+JiN4YTsJCTxnIGlkPSJzaGFwZTQ1NzgtMTgiIHRyYW5zZm9ybT0idHJhbnNsYXRlKDExLjcxOSwtNy4yMzI5NykiPiYjeGE7CQkJPHRpdGxlIGlkPSJ0aXRsZTc2NjE0Ij5TaGVldC40NTc4PC90aXRsZT4mI3hhOwkJCTxwYXRoIGlkPSJwYXRoNzY2MTYiIGlua3NjYXBlOmNvbm5lY3Rvci1jdXJ2YXR1cmU9IjAiIHN0eWxlPSJmaWxsOiMyOUM3RjQ7IiBkPSJNMS44MSwyMi4zM2MtMC4yLTAuMTUtMC41LTAuMjQtMC44OC0wLjI0ICAgICBjLTAuOTMsMC0wLjkzLDAtMC45MywwYzAsMS45NSwwLDEuOTUsMCwxLjk1YzAuOTMsMCwwLjkzLDAsMC45MywwYzAuMzgsMCwwLjY4LTAuMDcsMC44OC0wLjI2YzAuMjMtMC4yLDAuMzQtMC40MywwLjM0LTAuNzUgICAgIEMyLjE1LDIyLjc2LDIuMDQsMjIuNTMsMS44MSwyMi4zM3oiLz4mI3hhOwkJPC9nPiYjeGE7CTwvZz4mI3hhOzwvZz4mI3hhOzwvc3ZnPg==;" vertex="1" parent="1">
          <mxGeometry x="830" y="248" width="42" height="55" as="geometry" />
        </mxCell>
        <mxCell id="koMXSCEaMbT42UIQHmm_-8" value="" style="endArrow=classic;html=1;rounded=0;exitX=0.953;exitY=0.644;exitDx=0;exitDy=0;exitPerimeter=0;entryX=0;entryY=0.5;entryDx=0;entryDy=0;" edge="1" parent="1" source="koMXSCEaMbT42UIQHmm_-2" target="koMXSCEaMbT42UIQHmm_-21">
          <mxGeometry width="50" height="50" relative="1" as="geometry">
            <mxPoint x="290" y="330" as="sourcePoint" />
            <mxPoint x="280" y="275" as="targetPoint" />
            <Array as="points">
              <mxPoint x="260" y="275" />
            </Array>
          </mxGeometry>
        </mxCell>
        <mxCell id="koMXSCEaMbT42UIQHmm_-9" value="" style="endArrow=classic;html=1;rounded=0;entryX=0;entryY=0.5;entryDx=0;entryDy=0;" edge="1" parent="1" source="koMXSCEaMbT42UIQHmm_-4" target="koMXSCEaMbT42UIQHmm_-7">
          <mxGeometry width="50" height="50" relative="1" as="geometry">
            <mxPoint x="790" y="332" as="sourcePoint" />
            <mxPoint x="944" y="330" as="targetPoint" />
          </mxGeometry>
        </mxCell>
        <mxCell id="koMXSCEaMbT42UIQHmm_-10" value="" style="endArrow=classic;html=1;rounded=0;entryX=0;entryY=0.5;entryDx=0;entryDy=0;" edge="1" parent="1" source="koMXSCEaMbT42UIQHmm_-6" target="koMXSCEaMbT42UIQHmm_-5">
          <mxGeometry width="50" height="50" relative="1" as="geometry">
            <mxPoint x="480" y="286" as="sourcePoint" />
            <mxPoint x="660" y="287" as="targetPoint" />
          </mxGeometry>
        </mxCell>
        <mxCell id="koMXSCEaMbT42UIQHmm_-11" value="" style="verticalLabelPosition=bottom;html=1;verticalAlign=top;align=center;strokeColor=none;fillColor=#00BEF2;shape=mxgraph.azure.scheduler;pointerEvents=1;" vertex="1" parent="1">
          <mxGeometry x="540" y="226.5" width="30" height="40" as="geometry" />
        </mxCell>
        <mxCell id="koMXSCEaMbT42UIQHmm_-13" value="" style="shape=image;verticalLabelPosition=bottom;labelBackgroundColor=default;verticalAlign=top;aspect=fixed;imageAspect=0;image=https://swimburger.net/media/ppnn3pcl/azure.png;" vertex="1" parent="1">
          <mxGeometry x="890" y="120" width="40" height="40" as="geometry" />
        </mxCell>
        <mxCell id="koMXSCEaMbT42UIQHmm_-15" value="" style="shape=image;editableCssRules=.*;verticalLabelPosition=bottom;labelBackgroundColor=default;verticalAlign=top;aspect=fixed;imageAspect=0;image=data:image/svg+xml,PHN2ZyB4bWxucz0iaHR0cDovL3d3dy53My5vcmcvMjAwMC9zdmciIHZpZXdCb3g9Ii0wLjUgLTAuNSAyNi4wODQgMjgiIGhlaWdodD0iMjgiIHdpZHRoPSIyNi4wODQiPiYjeGE7CSAgPHN0eWxlIHR5cGU9InRleHQvY3NzIj4mI3hhOwkJLnN0MHtzdG9wLWNvbG9yOiMwMGNlYWM7fSYjeGE7CQkuc3Qxe3N0b3AtY29sb3I6IzA3ODM4Zjt9JiN4YTsJICA8L3N0eWxlPiYjeGE7CTxkZWZzPiYjeGE7CQk8bGluZWFyR3JhZGllbnQgZ3JhZGllbnRVbml0cz0idXNlclNwYWNlT25Vc2UiIHkyPSIyMy43OTIiIHgyPSIyMy4yNTYiIHkxPSIzLjQ3NCIgeDE9IjEuODY1IiBpZD0iQSI+JiN4YTsJCQk8c3RvcCBjbGFzcz0ic3QwIi8+JiN4YTsJCQk8c3RvcCBjbGFzcz0ic3QxIiBvZmZzZXQ9IjEiLz4mI3hhOwkJPC9saW5lYXJHcmFkaWVudD4mI3hhOwk8L2RlZnM+JiN4YTsJPHBhdGggZmlsbD0idXJsKCNBKSIgZD0iTTI0LjEwNCA4LjEwMmE0Ljk3IDQuOTcgMCAwIDEgMS4wNDIgMS41MzRjLjI5MS41NDkuNDM4IDEuMTUyLjQzOCAxLjgxdjExLjcyNWMwIDEuMjQxLS40MjEgMi4yNjUtMS4yNjIgMy4wNjgtLjgzOC44NDItMS44OCAxLjI2MS0zLjEyMSAxLjI2MUgzLjgyN2E0LjE4IDQuMTggMCAwIDEtMy4wNjgtMS4yNjFDLS4wODEgMjUuNDM2LS41IDI0LjQxMi0uNSAyMy4xNzFWMTEuNDQ0YzAtMS4zODcuNDkxLTIuNTAyIDEuNDc4LTMuMzQyTDkuNjM4LjU5NkE0LjUgNC41IDAgMCAxIDEyLjU5NC0uNSA0LjA5IDQuMDkgMCAwIDEgMTUuNDQ0LjU5NnptLTkuMzcgNy44MzZIMTAuMzV2OC43MTNoNC4zODR6bTcuNzgyLTQuNDk0YzAtLjQ3My0uMTQ3LS44NTktLjQzOC0xLjE1bC04LjY1OC03LjUwNmMtLjYyMS0uNDczLTEuMjYxLS40NzMtMS45MTggMGwtOC42NTUgNy41MDZjLS4yOTMuMjkzLS40MzguNjc3LS40MzggMS4xNTJ2MTEuNzI1YzAgLjQzOC4xMjguODAzLjM4NCAxLjA5NmExLjUzIDEuNTMgMCAwIDAgMS4wNC4zODRoMy42MTd2LTguNzEzYzAtLjgwMy4yNzQtMS40OC44MjEtMi4wMjcuNTg2LS41ODYgMS4yOC0uODc3IDIuMDgzLS44NzdoNC4zODRhMi42NiAyLjY2IDAgMCAxIDIuMDI3Ljg3N2MuNTQ5LjU0Ny44MjIgMS4yMjQuODIyIDIuMDI3djguNzEzaDMuNjE3Yy40MzggMCAuNzg0LS4xMjggMS4wNC0uMzg0LjE0NC0uMTQzLjI1Ny0uMzE0LjMzMy0uNTAzcy4xMTEtLjM5LjEwNi0uNTkzeiIvPiYjeGE7PC9zdmc+;" vertex="1" parent="1">
          <mxGeometry x="320" y="126.16" width="50" height="53.84" as="geometry" />
        </mxCell>
        <mxCell id="koMXSCEaMbT42UIQHmm_-16" value="Python Script" style="text;strokeColor=none;align=center;fillColor=none;html=1;verticalAlign=middle;whiteSpace=wrap;rounded=0;" vertex="1" parent="1">
          <mxGeometry x="599.5" y="306.5" width="60" height="30" as="geometry" />
        </mxCell>
        <mxCell id="koMXSCEaMbT42UIQHmm_-17" value="On Premise Database" style="text;strokeColor=none;align=center;fillColor=none;html=1;verticalAlign=middle;whiteSpace=wrap;rounded=0;" vertex="1" parent="1">
          <mxGeometry x="168.29" y="310" width="60" height="40" as="geometry" />
        </mxCell>
        <mxCell id="koMXSCEaMbT42UIQHmm_-19" value="Cloud Hosted DB" style="text;strokeColor=none;align=center;fillColor=none;html=1;verticalAlign=middle;whiteSpace=wrap;rounded=0;" vertex="1" parent="1">
          <mxGeometry x="821" y="310" width="60" height="40" as="geometry" />
        </mxCell>
        <mxCell id="koMXSCEaMbT42UIQHmm_-20" value="SFTP VM" style="text;strokeColor=none;align=center;fillColor=none;html=1;verticalAlign=middle;whiteSpace=wrap;rounded=0;" vertex="1" parent="1">
          <mxGeometry x="452.40999999999997" y="310" width="60" height="30" as="geometry" />
        </mxCell>
        <mxCell id="koMXSCEaMbT42UIQHmm_-21" value="" style="shape=image;verticalLabelPosition=bottom;labelBackgroundColor=#ffffff;verticalAlign=top;aspect=fixed;imageAspect=0;image=data:image/svg+xml,PHN2ZyB4bWxuczpjYz0iaHR0cDovL2NyZWF0aXZlY29tbW9ucy5vcmcvbnMjIiB4bWxuczpkYz0iaHR0cDovL3B1cmwub3JnL2RjL2VsZW1lbnRzLzEuMS8iIHhtbG5zOmlua3NjYXBlPSJodHRwOi8vd3d3Lmlua3NjYXBlLm9yZy9uYW1lc3BhY2VzL2lua3NjYXBlIiB4bWxuczpyZGY9Imh0dHA6Ly93d3cudzMub3JnLzE5OTkvMDIvMjItcmRmLXN5bnRheC1ucyMiIHhtbG5zOnNvZGlwb2RpPSJodHRwOi8vc29kaXBvZGkuc291cmNlZm9yZ2UubmV0L0RURC9zb2RpcG9kaS0wLmR0ZCIgeG1sbnM6c3ZnPSJodHRwOi8vd3d3LnczLm9yZy8yMDAwL3N2ZyIgeG1sbnM9Imh0dHA6Ly93d3cudzMub3JnLzIwMDAvc3ZnIiB4bWxuczp4bGluaz0iaHR0cDovL3d3dy53My5vcmcvMTk5OS94bGluayIgdmVyc2lvbj0iMS4xIiBpZD0ic3ZnMTk2OTUxIiBpbmtzY2FwZTp2ZXJzaW9uPSIwLjkyLjMgKDI0MDU1NDYsIDIwMTgtMDMtMTEpIiBzb2RpcG9kaTpkb2NuYW1lPSJweXRob25fdG9vbHNfYW5kX3Nkay5zdmciIHg9IjBweCIgeT0iMHB4IiB2aWV3Qm94PSIwIDAgNDggNDgiIHN0eWxlPSJlbmFibGUtYmFja2dyb3VuZDpuZXcgMCAwIDQ4IDQ4OyIgeG1sOnNwYWNlPSJwcmVzZXJ2ZSI+JiN4YTs8c29kaXBvZGk6bmFtZWR2aWV3IGJvcmRlcmNvbG9yPSIjNjY2NjY2IiBib3JkZXJvcGFjaXR5PSIxIiBmaXQtbWFyZ2luLWJvdHRvbT0iMCIgZml0LW1hcmdpbi1sZWZ0PSIwIiBmaXQtbWFyZ2luLXJpZ2h0PSIwIiBmaXQtbWFyZ2luLXRvcD0iMCIgZ3JpZHRvbGVyYW5jZT0iMTAiIGd1aWRldG9sZXJhbmNlPSIxMCIgaWQ9Im5hbWVkdmlldzE5Njk1MyIgaW5rc2NhcGU6Y3VycmVudC1sYXllcj0ic3ZnMTk2OTUxIiBpbmtzY2FwZTpjeD0iMzIuMDAwMDE1IiBpbmtzY2FwZTpjeT0iMzIuMDAwNTg2IiBpbmtzY2FwZTpwYWdlb3BhY2l0eT0iMCIgaW5rc2NhcGU6cGFnZXNoYWRvdz0iMiIgaW5rc2NhcGU6d2luZG93LWhlaWdodD0iMTAxNyIgaW5rc2NhcGU6d2luZG93LW1heGltaXplZD0iMSIgaW5rc2NhcGU6d2luZG93LXdpZHRoPSIxOTIwIiBpbmtzY2FwZTp3aW5kb3cteD0iLTgiIGlua3NjYXBlOndpbmRvdy15PSItOCIgaW5rc2NhcGU6em9vbT0iMTAuMjcyOTE3IiBvYmplY3R0b2xlcmFuY2U9IjEwIiBwYWdlY29sb3I9IiNmZmZmZmYiIHNob3dncmlkPSJmYWxzZSI+JiN4YTsJPC9zb2RpcG9kaTpuYW1lZHZpZXc+JiN4YTs8ZyBpZD0iZzE5Njk0OSIgdHJhbnNmb3JtPSJ0cmFuc2xhdGUoLTcuNjUsLTcuNjQ5MjgwNikiPiYjeGE7CTx0aXRsZSBpZD0idGl0bGUxOTY5MDUiPlBhZ2UtMTwvdGl0bGU+JiN4YTsJPGcgaWQ9Imdyb3VwMTE3Ny0xIiB0cmFuc2Zvcm09InRyYW5zbGF0ZSg3LjY1LC03LjYxMzQyKSI+JiN4YTsJCTx0aXRsZSBpZD0idGl0bGUxOTY5MDciPlB5dGhvbiBUb29scyBhbmQgU0RLPC90aXRsZT4mI3hhOwkJPGcgaWQ9Imdyb3VwMTE3OC0yIj4mI3hhOwkJCTx0aXRsZSBpZD0idGl0bGUxOTY5MDkiPlNoZWV0LjExNzg8L3RpdGxlPiYjeGE7CQkJPGcgaWQ9Imdyb3VwMTE3OS0zIiB0cmFuc2Zvcm09InRyYW5zbGF0ZSgwLC0xMi4zMTQ3KSI+JiN4YTsJCQkJPHRpdGxlIGlkPSJ0aXRsZTE5NjkxMSI+U2hlZXQuMTE3OTwvdGl0bGU+JiN4YTsJCQkJPGcgaWQ9InNoYXBlMTE4MC00Ij4mI3hhOwkJCQkJPHRpdGxlIGlkPSJ0aXRsZTE5NjkxMyI+U2hlZXQuMTE4MDwvdGl0bGU+JiN4YTsJCQkJCTxwYXRoIGlkPSJwYXRoMTk2OTE1IiBpbmtzY2FwZTpjb25uZWN0b3ItY3VydmF0dXJlPSIwIiBzdHlsZT0iZmlsbDojMzc3MkE0OyIgZD0iTTAsNTEuMTdjMC4wMi0wLjA2LDAuMDQtMC4xMywwLjA1LTAuMiAgICAgICBjMC4wNC0wLjcsMC4wNC0xLjQsMC4xMS0yLjFjMC4yNC0yLjI2LDAuNzYtNC40NCwyLjE4LTYuMjhjMS4xLTEuNDQsMi41NC0yLjMsNC4zMy0yLjU0YzAuMjUtMC4wMywwLjUxLTAuMDQsMC43Ni0wLjA0ICAgICAgIGM1LjM5LDAsMTAuNzksMCwxNi4xOCwwYzAuMzEsMCwwLjMxLDAsMC4zMi0wLjMyYzAtMC4zNy0wLjAyLTAuNzUsMC0xLjEyYzAuMDEtMC4yMy0wLjA3LTAuMjktMC4yOS0wLjI5ICAgICAgIGMtMi45OCwwLjAxLTUuOTUsMC4wMS04LjkzLDAuMDFjLTAuNywwLTEuMzktMC4wMS0yLjA5LDBjLTAuMTksMC0wLjI2LTAuMDUtMC4yNS0wLjI1YzAtMS44My0wLjAxLTMuNjcsMC01LjUgICAgICAgYzAuMDEtMC44MiwwLjQtMS41MSwwLjkzLTIuMTFjMC43NC0wLjg0LDEuNjktMS4zNiwyLjcxLTEuNzVjMS4yNi0wLjQ4LDIuNTctMC43MywzLjg5LTAuODljMS44My0wLjIzLDMuNjYtMC4yNSw1LjQ5LTAuMTcgICAgICAgYzEuOTcsMC4wOCwzLjkyLDAuMzUsNS43OCwxLjA3YzEuMjYsMC40OSwyLjQsMS4xNiwzLjIzLDIuMjZjMC42OSwwLjkxLDEuMDEsMS45MiwwLjk1LDMuMDhjLTAuMDUsMC45My0wLjAyLDEuODctMC4wMSwyLjgxICAgICAgIGMwLDEuNzMsMC4wMSwzLjQ2LDAuMDEsNS4xOWMwLDEuMDIsMC4wMiwyLjA0LTAuMDUsMy4wNmMtMC4xNCwyLjQtMS4yOSw0LjExLTMuNTEsNS4wNGMtMS4wMSwwLjQyLTIuMDYsMC42MS0zLjE0LDAuNjEgICAgICAgYy0zLjgyLDAtNy42NS0wLjAxLTExLjQ3LDBjLTEuMjIsMC0yLjM5LDAuMjctMy40NSwwLjkxYy0xLjQsMC44NS0yLjIsMi4xNS0yLjY1LDMuN2MtMC4yMiwwLjc3LTAuMzEsMS41Ny0wLjMyLDIuMzcgICAgICAgYzAsMS43MywwLDMuNDYsMCw1LjE5YzAsMC4zNSwwLDAuMzUtMC4zNCwwLjM1Yy0xLjI1LDAtMi40OSwwLjA0LTMuNzQsMC4wMWMtMS4yNy0wLjA0LTIuMzctMC41NC0zLjMyLTEuMzcgICAgICAgYy0xLjEyLTAuOTYtMS44Mi0yLjE5LTIuMzEtMy41NmMtMC40Ni0xLjI1LTAuNzMtMi41NC0wLjg0LTMuODZjLTAuMDgtMC44NC0wLjExLTEuNjgtMC4xNi0yLjUyICAgICAgIEMwLjA0LDUxLjg3LDAuMDIsNTEuNzgsMCw1MS42OUMwLDUxLjUyLDAsNTEuMzUsMCw1MS4xN3oiLz4mI3hhOwkJCQk8L2c+JiN4YTsJCQkJPGcgaWQ9InNoYXBlMTE4MS02IiB0cmFuc2Zvcm09InRyYW5zbGF0ZSgxNS4yMDMzLC0yNy44MzIpIj4mI3hhOwkJCQkJPHRpdGxlIGlkPSJ0aXRsZTE5NjkxOCI+U2hlZXQuMTE4MTwvdGl0bGU+JiN4YTsJCQkJCTxwYXRoIGlkPSJwYXRoMTk2OTIwIiBpbmtzY2FwZTpjb25uZWN0b3ItY3VydmF0dXJlPSIwIiBkPSJNMCw2MS4xNWMwLDEuMTksMC45NCwyLjE1LDIuMTEsMi4xNWMxLjE1LDAsMi4xMS0wLjk3LDIuMTEtMi4xMyAgICAgICBjMC0xLjE5LTAuOTUtMi4xNi0yLjExLTIuMTVDMC45Myw1OS4wMywwLDU5Ljk3LDAsNjEuMTV6Ii8+JiN4YTsJCQkJPC9nPiYjeGE7CQkJCTxnIGlkPSJzaGFwZTExODItOCIgdHJhbnNmb3JtPSJ0cmFuc2xhdGUoMTUuMjAzMywtMjcuODMyKSI+JiN4YTsJCQkJCTx0aXRsZSBpZD0idGl0bGUxOTY5MjMiPlNoZWV0LjExODI8L3RpdGxlPiYjeGE7CQkJCQk8cGF0aCBpZD0icGF0aDE5NjkyNSIgaW5rc2NhcGU6Y29ubmVjdG9yLWN1cnZhdHVyZT0iMCIgc3R5bGU9ImZpbGw6I0ZGRkZGRjsiIGQ9Ik0wLDYxLjE1YzAtMS4xOCwwLjkzLTIuMTIsMi4xMS0yLjEzICAgICAgIGMxLjE2LTAuMDEsMi4xMSwwLjk2LDIuMTEsMi4xNWMwLDEuMTYtMC45NiwyLjEzLTIuMTEsMi4xM0MwLjk0LDYzLjMsMCw2Mi4zNCwwLDYxLjE1eiIvPiYjeGE7CQkJCTwvZz4mI3hhOwkJCTwvZz4mI3hhOwkJCTxnIGlkPSJncm91cDExODMtMTAiIHRyYW5zZm9ybT0idHJhbnNsYXRlKDEyLjU5NCkiPiYjeGE7CQkJCTx0aXRsZSBpZD0idGl0bGUxOTY5MjkiPlNoZWV0LjExODM8L3RpdGxlPiYjeGE7CQkJCTxnIGlkPSJzaGFwZTExODQtMTEiPiYjeGE7CQkJCQk8dGl0bGUgaWQ9InRpdGxlMTk2OTMxIj5TaGVldC4xMTg0PC90aXRsZT4mI3hhOwkJCQkJPHBhdGggaWQ9InBhdGgxOTY5MzMiIGlua3NjYXBlOmNvbm5lY3Rvci1jdXJ2YXR1cmU9IjAiIHN0eWxlPSJmaWxsOiNGRkRBNEI7IiBkPSJNMzUuNDEsMzkuNjZjLTAuMDIsMC4wNy0wLjA1LDAuMTQtMC4wNSwwLjIxICAgICAgIGMtMC4wNCwwLjctMC4wNSwxLjQtMC4xMiwyLjA5Yy0wLjIzLDIuMjctMC43NSw0LjQ1LTIuMTcsNi4yOWMtMS4xLDEuNDQtMi41NCwyLjMtNC4zNCwyLjUzYy0wLjI1LDAuMDQtMC41LDAuMDUtMC43NiwwLjA1ICAgICAgIGMtNS4zOSwwLTEwLjc4LDAtMTYuMTcsMGMtMC4zMiwwLTAuMzIsMC0wLjMyLDAuMzJjMCwwLjM3LDAuMDEsMC43NSwwLDEuMTJjLTAuMDIsMC4yMywwLjA3LDAuMjksMC4yOCwwLjI5ICAgICAgIGMyLjk4LTAuMDEsNS45Ni0wLjAxLDguOTQtMC4wMWMwLjY5LDAsMS4zOSwwLjAxLDIuMDksMGMwLjE5LDAsMC4yNSwwLjA1LDAuMjUsMC4yNWMtMC4wMSwxLjgzLDAuMDEsMy42Ny0wLjAxLDUuNSAgICAgICBjLTAuMDEsMC44Mi0wLjM5LDEuNTEtMC45MywyLjExYy0wLjc0LDAuODMtMS42OCwxLjM2LTIuNywxLjc1Yy0xLjI2LDAuNDgtMi41NywwLjcyLTMuOSwwLjg5Yy0xLjgyLDAuMjMtMy42NSwwLjI1LTUuNDgsMC4xNyAgICAgICBjLTEuOTctMC4wOS0zLjkyLTAuMzUtNS43OC0xLjA3Yy0xLjI2LTAuNDktMi40LTEuMTYtMy4yNC0yLjI3Yy0wLjY4LTAuOS0xLTEuOTItMC45NC0zLjA3YzAuMDUtMC45MywwLjAxLTEuODcsMC4wMS0yLjgxICAgICAgIGMwLTEuNzMtMC4wMS0zLjQ2LTAuMDEtNS4xOWMwLTEuMDItMC4wMi0yLjA0LDAuMDQtMy4wNmMwLjE0LTIuNCwxLjI5LTQuMTEsMy41Mi01LjA0YzEtMC40MywyLjA2LTAuNjEsMy4xNC0wLjYxICAgICAgIGMzLjgyLDAsNy42NCwwLjAxLDExLjQ2LDBjMS4yMywwLDIuNC0wLjI3LDMuNDYtMC45MWMxLjQtMC44NSwyLjItMi4xNSwyLjY0LTMuN2MwLjIyLTAuNzcsMC4zMi0xLjU3LDAuMzItMi4zNyAgICAgICBjMC4wMS0xLjczLDAtMy40NiwwLTUuMmMwLTAuMzQsMC0wLjM0LDAuMzUtMC4zNGMxLjI0LDAsMi40OS0wLjA0LDMuNzMtMC4wMWMxLjI3LDAuMDQsMi4zNywwLjU0LDMuMzMsMS4zNyAgICAgICBjMS4xMSwwLjk2LDEuODEsMi4xOSwyLjMxLDMuNTZjMC40NSwxLjI1LDAuNzIsMi41NCwwLjg0LDMuODZjMC4wNywwLjg0LDAuMTEsMS42OCwwLjE2LDIuNTFjMCwwLjEsMC4wMywwLjE5LDAuMDUsMC4yOCAgICAgICBDMzUuNDEsMzkuMzIsMzUuNDEsMzkuNDksMzUuNDEsMzkuNjZ6Ii8+JiN4YTsJCQkJPC9nPiYjeGE7CQkJCTxnIGlkPSJzaGFwZTExODUtMTMiIHRyYW5zZm9ybT0idHJhbnNsYXRlKDE1Ljk4MTMsLTMuOTEyKSI+JiN4YTsJCQkJCTx0aXRsZSBpZD0idGl0bGUxOTY5MzYiPlNoZWV0LjExODU8L3RpdGxlPiYjeGE7CQkJCQk8cGF0aCBpZD0icGF0aDE5NjkzOCIgaW5rc2NhcGU6Y29ubmVjdG9yLWN1cnZhdHVyZT0iMCIgZD0iTTQuMjIsNjEuMTZjMC0xLjE5LTAuOTQtMi4xNS0yLjExLTIuMTVDMC45Niw1OS4wMiwwLDU5Ljk4LDAsNjEuMTQgICAgICAgYzAsMS4xOSwwLjk1LDIuMTYsMi4xMiwyLjE1UzQuMjIsNjIuMzQsNC4yMiw2MS4xNnoiLz4mI3hhOwkJCQk8L2c+JiN4YTsJCQkJPGcgaWQ9InNoYXBlMTE4Ni0xNSIgdHJhbnNmb3JtPSJ0cmFuc2xhdGUoMTUuOTgwNywtMy45MTIpIj4mI3hhOwkJCQkJPHRpdGxlIGlkPSJ0aXRsZTE5Njk0MSI+U2hlZXQuMTE4NjwvdGl0bGU+JiN4YTsJCQkJCTxwYXRoIGlkPSJwYXRoMTk2OTQzIiBpbmtzY2FwZTpjb25uZWN0b3ItY3VydmF0dXJlPSIwIiBzdHlsZT0iZmlsbDojRkZGRkZGOyIgZD0iTTQuMjIsNjEuMTZjMCwxLjE4LTAuOTMsMi4xMi0yLjEsMi4xMyAgICAgICBDMC45NSw2My4zLDAsNjIuMzMsMCw2MS4xNGMwLTEuMTYsMC45Ni0yLjEyLDIuMTEtMi4xM0MzLjI4LDU5LjAxLDQuMjIsNTkuOTcsNC4yMiw2MS4xNnoiLz4mI3hhOwkJCQk8L2c+JiN4YTsJCQk8L2c+JiN4YTsJCTwvZz4mI3hhOwk8L2c+JiN4YTs8L2c+JiN4YTs8L3N2Zz4=;" vertex="1" parent="1">
          <mxGeometry x="289.5" y="254.5" width="41" height="41" as="geometry" />
        </mxCell>
        <mxCell id="koMXSCEaMbT42UIQHmm_-22" value="Python Script" style="text;strokeColor=none;align=center;fillColor=none;html=1;verticalAlign=middle;whiteSpace=wrap;rounded=0;" vertex="1" parent="1">
          <mxGeometry x="280" y="306.5" width="60" height="30" as="geometry" />
        </mxCell>
        <mxCell id="koMXSCEaMbT42UIQHmm_-23" value="" style="endArrow=classic;html=1;rounded=0;exitX=1;exitY=0.5;exitDx=0;exitDy=0;" edge="1" parent="1" source="koMXSCEaMbT42UIQHmm_-21" target="koMXSCEaMbT42UIQHmm_-6">
          <mxGeometry width="50" height="50" relative="1" as="geometry">
            <mxPoint x="515" y="285" as="sourcePoint" />
            <mxPoint x="619" y="285" as="targetPoint" />
          </mxGeometry>
        </mxCell>
        <mxCell id="koMXSCEaMbT42UIQHmm_-24" value="&lt;font style=&quot;font-size: 18px;&quot;&gt;Python Refresher Project&lt;/font&gt;" style="text;strokeColor=#6c8ebf;align=center;fillColor=#dae8fc;html=1;verticalAlign=middle;whiteSpace=wrap;rounded=1;" vertex="1" parent="1">
          <mxGeometry x="425" y="70" width="320" height="30" as="geometry" />
        </mxCell>
      </root>
    </mxGraphModel>
  </diagram>
</mxfile>
